<svg width="620" height="620" viewBox="0 0 620 620" fill="none" xmlns="http://www.w3.org/2000/svg">
<path d="M389.229 395.382C392.777 414.009 390.391 434.344 390.391 453.226C390.391 458.696 390.951 463.421 392.134 468.784C393.637 475.596 393.184 482.7 395.039 489.378C397.353 497.709 396.518 506.641 398.525 515.071C401.545 527.754 400.849 541.397 400.849 554.387C400.849 558.376 398.263 581.241 403.173 582.469" stroke="black" stroke-width="3" stroke-linecap="round"/>
<path d="M231.193 145.546C235.554 149.114 238.099 154.109 241.716 158.328C245.722 163.002 248.177 168.323 250.367 174.016C252.302 179.049 255.578 182.205 259.017 186.217C261.314 188.897 263.24 195.143 265.021 198.483C277.409 221.71 292.401 242.752 308.533 263.492C313.034 269.279 315.993 275.763 320.928 281.245C326.67 287.625 328.699 297.439 334.872 303.84C343.463 312.75 347.195 325.771 355.53 334.957C359.796 339.658 362.904 346.036 366.247 351.483C369.094 356.124 373.341 359.956 375.543 364.911C380.276 375.562 390.976 382.617 393.877 394.22" stroke="black" stroke-width="3" stroke-linecap="round"/>
<path d="M225.383 60.7179C225.383 71.073 226.545 81.2106 226.545 91.1889C226.545 99.1617 228.869 105.347 228.869 113.009C228.869 119.36 232.355 125.529 232.355 132.183C232.355 139.349 232.355 146.514 232.355 153.68" stroke="black" stroke-width="3" stroke-linecap="round"/>
<path d="M225.383 54.9078C238.602 65.235 244.638 81.895 255.66 93.8358C257.883 96.2435 259.745 99.5488 261.341 102.422C262.97 105.354 265.962 107.144 267.474 110.169C269.623 114.467 271.7 116.322 274.575 119.981C276.127 121.956 277.825 123.509 278.578 126.05C281.231 135.005 287.815 143.4 293.943 150.84C296.235 153.623 295.517 155.252 296.396 158.328C297.313 161.539 301.525 165.366 303.497 168.141C307.427 173.672 310.263 179.826 314.214 185.313C319.936 193.261 329.271 199.958 333.387 208.877C339.259 221.599 347.948 234.402 357.338 244.835C360.611 248.472 362.582 255.231 365.278 259.425C369.426 265.877 372.3 273.339 375.737 280.212C378.88 286.498 381.73 292.877 386.13 298.417C389.956 303.235 395.697 303.891 397.363 310.554" stroke="black" stroke-width="3" stroke-linecap="round"/>
<path d="M389.229 309.392C389.229 318.838 388.067 327.719 388.067 337.023C388.067 343.14 389.229 348.949 389.229 354.969C389.229 362.026 390.391 368.652 390.391 375.628C390.391 381.27 390.998 384.992 392.586 390.153C393.355 392.651 392.021 394.688 393.877 396.544" stroke="black" stroke-width="3" stroke-linecap="round"/>
<path d="M279.998 164.139C280.283 157.739 284.195 153.667 284.905 147.87C285.602 142.178 276.779 144.728 273.543 145.288C264.875 146.788 266.054 153.04 266.054 160.652C266.054 163.08 268.165 176.878 266.699 176.921C259.239 177.14 257.438 171.451 252.11 168.787" stroke="black" stroke-width="3" stroke-linecap="round"/>
<path d="M293.943 182.731C292.39 184.865 290.992 188.22 288.843 189.832C283.621 193.749 276.685 194.926 271.799 199.387C268.184 202.688 282.595 200.753 283.678 200.613C290.762 199.702 297.88 198.16 304.853 196.611C308.023 195.906 308.527 194.18 304.788 196.546C297.587 201.104 289.426 204.404 282.451 209.199C275.674 213.859 291.565 209.666 291.877 209.587C301.202 207.209 310.264 203.844 319.507 201.323" stroke="black" stroke-width="3" stroke-linecap="round"/>
<path d="M298.591 238.508C302.576 235.174 307.397 229.212 313.116 229.212C315.9 229.212 317.779 228.656 320.217 228.115C323.696 227.342 333.135 226.665 334.355 230.632C335.813 235.371 329.849 242.058 327.771 245.868C326.058 249.008 323.651 256.538 320.669 258.327C317.406 260.285 312.535 269.994 312.535 262.911" stroke="black" stroke-width="3" stroke-linecap="round"/>
<path d="M304.401 231.536C309.173 236.53 313.423 241.648 316.925 246.901C318.94 249.924 318.591 251.291 322.993 251.291" stroke="black" stroke-width="3" stroke-linecap="round"/>
<path d="M334.614 293.124C339.678 288.953 344.435 285.286 348.816 280.729C350.974 278.485 352.908 276.243 355.272 274.273C361.655 268.954 365.34 285.264 365.924 289.057C367.551 299.63 354.194 294.286 348.558 294.286C344.197 294.286 339.874 285.179 339.262 281.503" stroke="black" stroke-width="3" stroke-linecap="round"/>
</svg>
