<svg width="288" height="288" viewBox="0 0 288 288" fill="none" xmlns="http://www.w3.org/2000/svg">
<path d="M109.621 53.2223C98.1575 80.8835 69.0095 95.1042 55.5685 122.527C49.6028 134.698 39.1632 145.691 34.0272 158.588C28.081 173.519 25.7654 193.097 17.8713 206.106C14.6296 211.448 15.4598 231.262 21.4615 235.03C28.8724 239.682 32.0131 243.463 38.2158 249.304C45.3747 256.045 54.4969 254.169 61.7516 259.634C79.7282 273.176 118.273 266.207 139.739 266.207C154.831 266.207 169.923 266.207 185.015 266.207C199.587 266.207 231.537 267.934 242.459 257.943C252.925 248.37 264 223.589 264 210.426C264 200.43 262.971 183.038 256.82 174.928C246.683 161.565 247.028 143.255 238.071 130.603C224.585 111.555 204.543 98.874 186.811 83.4609C180.774 78.2137 173.282 74.9664 166.267 70.8771C159.418 66.8852 155.296 59.4199 148.914 56.4152C138.747 51.6284 122.731 44.2583 113.211 53.2223" stroke="#F10C0C" stroke-width="3" stroke-linecap="round"/>
<path d="M112.957 49.636C106.436 48.6489 87.7779 49.3596 82.2379 44.8275C78.422 41.7059 80.6421 42.8255 80.6421 48.8963C80.6421 64.1544 85.7633 65.737 103.382 62.7669C111.391 61.4169 120.819 53.3463 125.724 47.9716C137.885 34.6467 155.79 29.5328 171.205 21.1549C179.525 16.6327 191.548 19.231 191.95 28.9225C192.539 43.1072 187.933 42.1316 177.388 50.9306C155.824 68.9248 101.932 54.8255 134.501 29.6623" stroke="#F10C0C" stroke-width="3" stroke-linecap="round"/>
<path d="M109.621 53.2223C98.1575 80.8835 69.0095 95.1042 55.5685 122.527C49.6028 134.698 39.1632 145.691 34.0272 158.588C28.081 173.519 25.7654 193.097 17.8713 206.106C14.6296 211.448 15.4598 231.262 21.4615 235.03C28.8724 239.682 32.0131 243.463 38.2158 249.304C45.3747 256.045 54.4969 254.169 61.7516 259.634C79.7282 273.176 118.273 266.207 139.739 266.207C154.831 266.207 169.923 266.207 185.015 266.207C199.587 266.207 231.537 267.934 242.459 257.943C252.925 248.37 264 223.589 264 210.426C264 200.43 262.971 183.038 256.82 174.928C246.683 161.565 247.028 143.255 238.071 130.603C224.585 111.555 204.543 98.874 186.811 83.4609C180.774 78.2137 173.282 74.9664 166.267 70.8771C159.418 66.8852 155.296 59.4199 148.914 56.4152C138.747 51.6284 122.731 44.2583 113.211 53.2223" stroke="#F10C0C" stroke-width="3" stroke-linecap="round"/>
</svg>
