<svg width="144" height="144" viewBox="0 0 144 144" fill="none" xmlns="http://www.w3.org/2000/svg">
<path d="M62.224 24.9156C57.3488 25.8906 52.246 27.9938 50.0353 32.9064C48.557 36.1913 49.2883 43.4851 49.667 47.0836C50.2255 52.3888 52.5844 58.9391 56.8477 62.255C58.7064 63.7006 61.7668 64.2009 63.9179 65.3482C67.482 67.2491 70.2036 66.3235 74.0076 65.6428C82.8926 64.0528 92.4558 59.178 93.9293 49.1089C94.5997 44.528 94.6582 38.362 93.8925 33.827C93.1486 29.4204 88.0016 25.508 84.4288 23.2585C77.6767 19.0072 71.5535 17.6245 63.5496 17.6245C58.7133 17.6245 57.5842 18.9306 57.5842 23.5899" stroke="black" stroke-width="3" stroke-linecap="round"/>
<path d="M71.5036 69.3252C71.5036 77.2792 71.5036 85.2331 71.5036 93.1871C71.5036 95.4456 71.5036 97.7041 71.5036 99.9627C71.5036 102.933 70.1779 105.279 70.1779 108.359C70.1779 111.767 71.1593 117.497 69.0364 120.437C65.848 124.851 59.6989 127.08 57.9892 132.589C57.1958 135.145 56.7826 137.211 55.5957 139.585" stroke="black" stroke-width="3" stroke-linecap="round"/>
<path d="M71.5036 115.06C76.8278 120.385 81.1681 126.352 86.2332 131.778C87.5485 133.188 89.4 137.058 89.4 138.922" stroke="black" stroke-width="3" stroke-linecap="round"/>
<path d="M72.8293 78.6048C76.2489 79.4407 78.903 80.7908 81.446 83.2446C83.9995 85.7085 87.5962 87.9898 89.6209 90.8671C91.5138 93.557 94.0398 96.3672 94.0398 99.8153" stroke="black" stroke-width="3" stroke-linecap="round"/>
<path d="M70.1779 81.2561C66.0342 88.4781 56.9213 97.0411 56.9213 105.781" stroke="black" stroke-width="3" stroke-linecap="round"/>
<path d="M70.1779 37.5093C75.5332 35.3922 79.7245 35.5209 85.423 35.5209" stroke="black" stroke-width="3" stroke-linecap="round"/>
<path d="M75.4806 51.4288C79.2874 56.3636 81.4341 58.0571 87.4115 58.0571" stroke="black" stroke-width="3" stroke-linecap="round"/>
<path d="M70.1779 23.5899C68.8655 22.5236 65.8648 19.67 68.3367 17.9191C69.3774 17.182 70.3617 19.8306 67.7107 20.3126C63.066 21.1571 59.5514 22.0754 54.8592 20.5704C51.5613 19.5126 56.7436 18.505 57.6578 18.2873C58.5668 18.0709 65.2669 17.7661 64.9121 18.0664C63.802 19.0057 52.3883 22.2362 52.0606 21.1596C50.527 16.1206 77.9774 16.4421 73.8603 21.4542C70.9893 24.9493 61.5257 25.7078 57.3632 26.094C50.236 26.7553 58.2113 21.4124 60.8247 20.7177C65.2715 19.5356 69.9265 19.5665 74.4863 19.2815C75.325 19.2291 80.3227 18.1792 81.1515 19.2447C82.7671 21.322 62.3247 25.73 61.2666 25.873C57.5301 26.378 52.2635 28.0089 48.4887 27.2723C44.7938 26.5514 51.3308 21.2854 52.3552 20.865C59.5657 17.9055 69.9427 18.5197 77.6532 18.987C77.9866 19.0072 79.9931 19.0423 79.3103 19.9812C77.3106 22.7307 69.2722 22.8776 66.4219 23.2954C63.9174 23.6624 58.7677 25.0995 56.1849 23.9582C53.9535 22.9722 57.1515 20.0294 57.9524 19.613C66.1277 15.3618 75.471 15.9776 84.3551 15.3046C86.6727 15.129 91.3372 14.7136 88.6635 18.5819C84.5939 24.4699 49.897 32.4364 53.0917 20.5704C54.452 15.5178 69.593 15.3504 73.4184 15.1205C74.2516 15.0704 84.1743 13.693 80.82 17.3667C78.5999 19.7983 74.2311 20.5096 71.2458 21.27C63.5012 23.2427 55.5324 24.6035 47.5681 25.2838C46.546 25.3712 42.6319 26.2436 42.3391 24.2528C42.0565 22.3315 43.0657 21.3592 44.7695 20.5704C55.0316 15.8194 68.818 15.57 79.9363 15.0468C83.8874 14.8609 88.3715 15.5588 84.8338 20.4231C80.1372 26.881 66.8063 28.7873 59.4622 29.4449C57.8889 29.5858 54.4505 30.1233 53.4599 28.3402C51.9978 25.7084 53.9583 21.7183 56.0376 20.0549C62.5905 14.8125 75.4849 15.3728 83.4345 15.6728C91.13 15.9632 79.0192 24.6101 77.1745 25.4311C73.5615 27.0391 53.6833 35.7481 52.3184 29.7764C50.4312 21.5198 62.7889 20.288 68.1895 19.613" stroke="black" stroke-width="3" stroke-linecap="round"/>
</svg>
